<?xml version="1.0" standalone="no"?>
<!DOCTYPE svg PUBLIC "-//W3C//DTD SVG 20010904//EN"
 "http://www.w3.org/TR/2001/REC-SVG-20010904/DTD/svg10.dtd">
<svg version="1.0" xmlns="http://www.w3.org/2000/svg"
 width="320.000000pt" height="320.000000pt" viewBox="0 0 320.000000 320.000000"
 preserveAspectRatio="xMidYMid meet">

<g transform="translate(0.000000,320.000000) scale(0.100000,-0.100000)"
fill="#000000" stroke="none">
<path d="M1411 3188 c-410 -46 -815 -276 -1074 -610 -290 -376 -398 -854 -297
-1321 118 -543 522 -992 1049 -1167 338 -112 665 -115 1001 -8 355 113 675
364 868 680 249 406 306 898 157 1344 -39 117 -117 275 -192 389 -91 137 -292
338 -428 427 -334 221 -696 309 -1084 266z m459 -23 c247 -44 472 -141 680
-293 168 -123 366 -356 461 -544 297 -589 210 -1286 -223 -1779 -464 -528
-1238 -684 -1873 -378 -240 115 -469 307 -607 507 l-29 42 154 0 154 0 12 41
c7 23 15 47 18 55 4 10 -13 14 -74 16 l-78 3 100 55 c96 53 100 57 114 102 10
34 20 48 33 48 15 0 16 -4 7 -27 -6 -16 -46 -131 -89 -256 l-79 -228 76 3 76
3 86 252 c66 194 90 253 103 253 11 0 15 -6 11 -20 -5 -17 0 -20 29 -20 79 0
105 -70 49 -132 -24 -27 -36 -32 -89 -36 -53 -4 -61 -7 -66 -27 -3 -13 -9 -30
-12 -39 -5 -13 1 -16 27 -16 59 0 62 -7 57 -119 l-4 -101 76 0 77 0 1 82 c2
46 5 91 8 100 3 10 0 26 -5 37 -9 17 -6 23 24 41 22 13 44 41 61 76 23 47 26
63 21 114 l-5 60 44 0 c24 0 44 -1 44 -2 0 -2 -16 -47 -35 -101 -49 -138 -45
-182 19 -207 48 -18 147 -12 184 10 37 23 54 56 104 202 31 92 35 98 60 98
l27 0 -55 -156 c-30 -85 -54 -157 -54 -160 0 -3 23 -4 51 -2 l52 3 46 135 46
135 38 3 c63 5 61 -6 -31 -266 -3 -10 8 -12 48 -10 l53 3 43 125 c26 74 43
139 41 160 -2 34 -1 35 36 38 20 2 37 1 37 -2 0 -3 -23 -71 -50 -152 -28 -81
-50 -153 -50 -161 0 -11 12 -13 48 -11 l47 3 46 135 c45 134 46 135 78 138 61
6 63 -7 20 -136 -21 -64 -39 -122 -39 -130 0 -9 13 -12 48 -10 l47 3 42 120
c29 82 42 134 40 163 l-2 42 37 0 c21 0 38 -3 38 -6 0 -3 -22 -71 -50 -151
-27 -80 -50 -151 -50 -159 0 -11 27 -14 145 -14 161 0 147 -6 169 68 7 22 6
22 -88 22 -100 0 -111 6 -83 43 9 12 31 17 91 19 l79 3 13 38 13 37 -80 0
c-78 0 -85 3 -73 34 5 13 24 16 105 16 97 0 99 0 105 25 4 18 13 25 31 25 20
0 24 -4 18 -18 -9 -21 -105 -305 -105 -310 0 -2 23 -2 52 0 l51 3 25 73 c23
69 25 72 55 72 55 0 61 -10 53 -84 l-7 -66 55 0 c30 0 57 4 60 8 3 5 7 46 10
92 4 73 8 86 29 104 35 30 47 59 46 108 -1 24 0 64 1 89 2 58 -20 102 -66 132
-21 13 -33 28 -30 37 3 8 12 34 20 57 9 24 21 74 27 113 10 68 10 72 -20 134
-32 69 -81 132 -109 140 -10 3 -25 28 -35 55 -17 50 -41 68 -79 62 -9 -1 -39
14 -66 34 -39 27 -54 46 -66 82 -21 61 -22 162 -1 169 18 7 20 25 3 21 -9 -1
-14 14 -16 46 -2 26 -8 47 -13 47 -6 0 -9 -19 -8 -45 2 -24 0 -47 -4 -51 -4
-4 -7 28 -7 70 0 58 -3 77 -12 74 -8 -3 -14 -29 -16 -72 -2 -39 -7 -66 -13
-64 -6 2 -29 39 -52 83 -37 68 -49 83 -90 104 -26 13 -50 21 -54 18 -11 -12
132 -236 191 -299 36 -40 46 -35 46 24 0 28 3 48 7 44 4 -4 6 -39 5 -78 -1
-59 4 -84 29 -147 25 -61 32 -95 36 -171 3 -52 0 -113 -5 -135 -9 -37 -10 -34
-11 40 -1 90 -23 148 -59 153 -30 5 -48 -28 -78 -146 l-27 -102 -89 0 c-49 0
-96 -5 -107 -11 -10 -7 -32 -9 -53 -5 -28 5 -37 13 -42 32 -4 15 -5 28 -3 30
2 2 50 -1 107 -6 57 -5 106 -7 109 -4 13 12 -35 34 -74 34 -23 0 -69 3 -103 6
-72 8 -82 22 -82 117 0 76 -16 109 -57 121 -56 16 -75 -7 -112 -131 -36 -126
-48 -145 -123 -196 -79 -55 -104 -45 -31 12 72 55 55 65 -24 15 -32 -21 -79
-46 -106 -56 -49 -19 -132 -24 -156 -9 -7 5 -25 53 -40 107 l-28 99 -199 -2
c-267 -3 -464 -13 -464 -24 0 -6 131 -7 325 -3 l325 7 0 -21 c0 -18 -6 -22
-32 -22 -18 1 -199 -2 -403 -6 -203 -4 -381 -7 -394 -7 -23 1 -24 0 -18 -65 9
-99 3 -103 -88 -51 -108 61 -109 63 -103 219 6 136 13 160 51 160 20 0 20 -1
-4 -27 -18 -20 -20 -25 -7 -20 15 5 18 1 18 -24 0 -16 -7 -44 -16 -61 -18 -35
-13 -63 17 -101 26 -34 35 -34 54 3 17 33 20 92 5 120 -22 42 -1 77 98 161 52
44 107 85 121 90 29 11 587 31 622 22 13 -3 51 -28 84 -54 49 -40 67 -49 99
-49 22 0 37 -3 33 -6 -3 -3 22 -20 56 -38 50 -25 63 -37 65 -59 3 -23 0 -27
-23 -27 -32 0 -90 -53 -63 -58 9 -2 21 -17 27 -33 6 -17 20 -33 31 -36 26 -7
26 -8 -12 -42 -49 -44 -27 -47 35 -6 66 44 86 81 69 129 -7 18 -12 51 -12 73
0 31 -5 44 -22 56 -22 15 -21 16 35 16 66 1 86 16 126 96 18 36 21 49 12 58
-17 17 -252 13 -376 -6 -68 -11 -105 -12 -118 -6 -24 13 -393 11 -557 -3 -69
-6 -182 -11 -252 -12 -112 -1 -130 -4 -155 -22 -25 -19 -28 -28 -28 -75 0 -30
-6 -64 -13 -76 -8 -14 -12 -64 -12 -141 0 -102 -4 -131 -26 -198 -22 -67 -25
-92 -22 -169 5 -101 22 -151 81 -228 21 -26 37 -49 37 -52 0 -3 -36 -5 -80 -5
-44 0 -80 -4 -80 -9 0 -12 105 -21 256 -21 74 0 134 -3 134 -7 0 -5 -65 -44
-145 -88 l-145 -80 -27 -73 -26 -74 -19 24 c-29 37 -134 256 -162 338 -195
578 -40 1221 396 1647 248 243 575 398 935 443 97 12 332 4 443 -15z m-160
-1140 c12 -22 11 -27 -5 -45 -10 -11 -25 -20 -33 -20 -9 0 -6 7 9 19 20 16 22
23 13 38 -10 15 -24 18 -95 17 -63 -2 -74 0 -44 6 22 4 63 8 91 9 44 1 52 -2
64 -24z m-1299 -21 c-18 -13 -22 -24 -19 -50 5 -41 -7 -46 -15 -6 -5 27 24 72
47 72 6 0 0 -7 -13 -16z m1186 -60 c-3 -3 -12 -4 -19 -1 -8 3 -5 6 6 6 11 1
17 -2 13 -5z m58 -189 c0 -27 -3 -30 -30 -30 -21 0 -31 5 -33 18 -6 33 6 49
35 45 24 -3 28 -8 28 -33z m-1231 -1 c21 -8 21 -60 0 -68 -34 -13 -59 35 -32
62 14 14 12 14 32 6z m206 -154 c0 -5 -5 -10 -11 -10 -5 0 -7 5 -4 10 3 6 8
10 11 10 2 0 4 -4 4 -10z m50 0 c0 -5 -5 -10 -11 -10 -5 0 -7 5 -4 10 3 6 8
10 11 10 2 0 4 -4 4 -10z m50 -2 c0 -4 -9 -8 -20 -8 -11 0 -20 4 -20 8 0 4 9
8 20 8 11 0 20 -4 20 -8z m25 2 c3 -5 1 -10 -4 -10 -6 0 -11 5 -11 10 0 6 2
10 4 10 3 0 8 -4 11 -10z m100 0 c3 -5 1 -10 -4 -10 -6 0 -11 5 -11 10 0 6 2
10 4 10 3 0 8 -4 11 -10z m50 0 c3 -5 1 -10 -4 -10 -6 0 -11 5 -11 10 0 6 2
10 4 10 3 0 8 -4 11 -10z m55 0 c0 -5 -5 -10 -11 -10 -5 0 -7 5 -4 10 3 6 8
10 11 10 2 0 4 -4 4 -10z m50 0 c0 -5 -4 -10 -10 -10 -5 0 -10 5 -10 10 0 6 5
10 10 10 6 0 10 -4 10 -10z m50 0 c0 -5 -5 -10 -11 -10 -5 0 -7 5 -4 10 3 6 8
10 11 10 2 0 4 -4 4 -10z m50 0 c0 -5 -5 -10 -11 -10 -5 0 -7 5 -4 10 3 6 8
10 11 10 2 0 4 -4 4 -10z m25 0 c3 -5 1 -10 -4 -10 -6 0 -11 5 -11 10 0 6 2
10 4 10 3 0 8 -4 11 -10z m50 0 c3 -5 1 -10 -4 -10 -6 0 -11 5 -11 10 0 6 2
10 4 10 3 0 8 -4 11 -10z m50 0 c3 -5 1 -10 -4 -10 -6 0 -11 5 -11 10 0 6 2
10 4 10 3 0 8 -4 11 -10z m55 0 c0 -5 -4 -10 -10 -10 -5 0 -10 5 -10 10 0 6 5
10 10 10 6 0 10 -4 10 -10z m34 -84 c-3 -15 -8 -25 -11 -23 -2 3 -1 17 3 31 3
15 8 25 11 23 2 -3 1 -17 -3 -31z m756 -2 c60 -24 93 -85 93 -172 l-1 -67 27
125 27 125 341 3 340 2 -8 -47 c-14 -73 -13 -73 -72 -73 l-54 0 -17 -87 c-10
-49 -24 -118 -33 -155 l-15 -68 -64 0 c-35 0 -64 3 -64 6 0 4 14 71 30 151 17
79 30 146 30 148 0 3 -70 5 -155 5 -131 0 -155 -2 -155 -15 0 -12 17 -15 96
-15 l96 0 -7 -42 c-13 -77 -14 -78 -119 -78 -85 0 -94 -2 -99 -20 -3 -11 -2
-22 1 -24 4 -2 51 -4 105 -4 55 0 101 -2 103 -5 2 -2 -1 -27 -8 -56 l-11 -51
-174 0 c-132 0 -173 3 -173 13 0 6 7 39 15 72 21 87 18 94 -13 34 -17 -34 -44
-65 -71 -84 -42 -29 -46 -30 -177 -33 -107 -3 -134 -1 -134 10 0 7 19 104 42
216 l42 202 98 0 c67 0 110 -5 138 -16z m-1520 -45 c0 -5 -7 -9 -15 -9 -15 0
-20 12 -9 23 8 8 24 -1 24 -14z m485 -188 l60 -6 7 -49 c4 -27 12 -62 19 -78
6 -16 10 -30 8 -32 -2 -2 -92 -7 -199 -12 l-194 -7 37 43 c20 24 45 67 54 96
l16 53 51 4 c28 2 58 1 66 -1 8 -3 42 -7 75 -11z m570 -30 c9 -27 29 -67 45
-89 29 -40 29 -40 7 -46 -12 -3 -80 -6 -151 -6 l-128 0 6 28 c3 15 9 51 12 80
6 44 10 52 28 52 12 0 30 7 40 15 12 9 42 15 72 15 l52 0 17 -49z m-177 -223
c-3 -7 -18 -51 -33 -97 -30 -92 -52 -121 -90 -121 -40 0 -41 26 -5 132 l33 98
49 0 c36 0 49 -4 46 -12z m1407 -38 c3 -6 3 -19 0 -30 -5 -17 -15 -20 -66 -20
-32 0 -59 3 -59 8 0 4 3 17 6 30 6 19 13 22 60 22 29 0 56 -5 59 -10z"/>
<path d="M1723 2662 c-6 -4 -13 -21 -15 -37 -3 -29 -5 -30 -58 -32 -30 -1
-152 -7 -270 -13 -118 -5 -231 -10 -251 -10 -35 0 -37 -2 -49 -45 -10 -35 -17
-45 -34 -45 -62 0 -138 -71 -237 -222 -61 -92 -75 -107 -77 -87 -4 25 -27 49
-49 49 -7 0 -13 -4 -13 -10 0 -5 7 -10 15 -10 18 0 20 -21 4 -37 -7 -7 -21 -8
-42 -2 -57 16 -69 12 -62 -19 5 -24 2 -30 -22 -40 l-28 -12 30 5 c17 2 68 11
115 19 108 19 509 37 915 40 260 2 319 5 326 17 6 8 8 55 4 114 -8 146 -13
165 -44 177 -17 7 -122 9 -301 5 -208 -3 -248 -2 -165 4 61 5 223 8 360 6
l250 -3 114 -42 c142 -52 149 -53 122 -8 -12 18 -21 42 -21 54 0 26 -47 67
-159 136 l-91 56 -127 0 c-71 0 -133 -4 -140 -8z"/>
<path d="M1960 2451 c0 -6 15 -12 33 -12 32 -2 32 -2 3 -6 l-29 -5 7 -79 c3
-43 9 -92 12 -109 l6 -30 32 26 c29 25 35 26 102 21 77 -7 124 -21 124 -37 0
-5 -12 -7 -28 -4 -39 8 -142 -13 -164 -33 -27 -24 -22 -36 12 -29 19 3 29 2
25 -4 -12 -19 -63 -11 -79 12 -21 30 -29 17 -21 -31 7 -40 18 -51 30 -31 3 6
21 9 38 9 18 -1 24 -3 15 -6 -41 -10 -12 -21 90 -32 59 -7 131 -15 161 -18 53
-6 53 -6 46 18 -18 57 -133 275 -160 304 -21 23 -52 39 -105 55 -95 28 -150
36 -150 21z m174 -47 c26 -9 45 -18 43 -20 -2 -3 -16 0 -31 5 -31 13 -32 11
-6 -58 12 -29 18 -56 15 -59 -3 -3 -7 -3 -9 -1 -5 6 -65 149 -62 149 1 0 24
-7 50 -16z m121 -214 c-3 -5 -16 -10 -28 -9 -21 0 -21 1 -2 9 28 12 37 12 30
0z m-53 -80 c4 -12 116 -32 129 -24 5 3 9 0 9 -7 0 -8 -12 -10 -37 -5 -21 3
-61 9 -90 12 -38 5 -50 10 -46 20 6 16 30 19 35 4z"/>
<path d="M942 2030 c-242 -8 -287 -13 -276 -31 3 -6 -17 -33 -45 -60 -59 -59
-69 -83 -46 -109 12 -13 16 -32 13 -72 l-3 -53 70 0 c158 1 662 16 693 21 l32
5 0 83 c0 88 -3 95 -78 180 -40 46 -47 47 -360 36z m172 -19 c7 -10 -23 -20
-43 -13 -11 4 -11 6 0 13 18 11 36 11 43 0z m81 -1 c4 -6 -5 -10 -20 -10 -15
0 -24 4 -20 10 3 6 12 10 20 10 8 0 17 -4 20 -10z m-431 -9 c7 -11 -14 -20
-32 -13 -11 4 -11 6 0 13 17 11 26 11 32 0z m86 -1 c0 -5 -12 -10 -26 -10 -14
0 -23 4 -19 10 3 6 15 10 26 10 10 0 19 -4 19 -10z m85 0 c-3 -5 -15 -10 -26
-10 -10 0 -19 5 -19 10 0 6 12 10 26 10 14 0 23 -4 19 -10z m85 0 c-20 -13
-40 -13 -40 0 0 6 12 10 28 10 21 0 24 -2 12 -10z m309 -96 c6 -15 10 -28 9
-30 -2 -1 -61 -4 -132 -5 -120 -2 -130 -1 -137 17 -4 10 -8 22 -8 26 -1 10 43
15 155 17 100 1 101 1 113 -25z m-419 -36 c0 -5 -6 -8 -12 -8 -8 0 -13 14 -14
31 -1 32 -1 32 12 8 7 -13 13 -27 14 -31z m34 25 c-2 -16 -1 -20 2 -10 7 22
24 22 24 0 0 -13 3 -14 12 -5 8 8 8 15 -2 27 -7 8 -8 15 -3 15 17 0 31 -21 26
-39 -3 -14 -15 -18 -45 -18 -37 0 -39 1 -33 24 3 15 2 22 -4 19 -5 -4 -12 -2
-16 4 -3 6 4 10 18 10 21 0 24 -4 21 -27z m91 -4 c-9 -17 -19 -29 -21 -26 -8
7 15 57 26 57 6 0 4 -13 -5 -31z m-227 -5 c3 -18 -4 -22 -44 -28 -66 -9 -184
-8 -184 2 0 15 25 40 45 45 11 3 56 4 100 4 73 -2 80 -4 83 -23z m53 15 c11
-5 17 -14 14 -20 -10 -15 -23 -11 -28 9 -4 13 -5 11 -6 -5 -1 -27 -21 -31 -21
-5 0 32 11 37 41 21z m199 -29 c0 -5 -4 -10 -10 -10 -5 0 -10 5 -10 10 0 6 5
10 10 10 6 0 10 -4 10 -10z m241 -87 c27 -20 49 -41 49 -46 0 -9 -4 -7 -68 37
-49 33 -37 33 -445 20 l-199 -7 -16 -33 c-8 -19 -20 -34 -24 -34 -5 0 1 18 13
40 17 29 29 40 48 41 155 8 360 16 465 17 l129 2 48 -37z"/>
<path d="M1932 1945 c-18 -8 -36 -24 -41 -37 -12 -33 -7 -33 24 -2 22 22 32
25 62 21 20 -4 46 -16 59 -28 38 -36 41 -12 4 26 -37 38 -58 42 -108 20z"/>
<path d="M2436 1858 c-22 -31 -20 -45 2 -25 10 10 35 17 55 17 45 0 49 15 6
24 -45 9 -46 8 -63 -16z"/>
<path d="M1827 1318 c-21 -101 -38 -187 -37 -192 0 -12 198 -1 235 14 95 37
150 173 110 276 -26 69 -58 84 -175 84 l-95 0 -38 -182z m222 96 c39 -49 16
-169 -40 -208 -21 -14 -129 -24 -129 -12 0 3 11 56 25 120 14 64 25 118 25
121 0 3 22 5 49 5 42 0 53 -4 70 -26z"/>
<path d="M1955 1410 c-8 -13 -44 -194 -39 -199 2 -3 21 0 41 5 53 13 83 61 83
130 0 29 -4 56 -10 59 -17 10 -69 14 -75 5z"/>
<path d="M2245 1488 c-5 -18 -75 -352 -75 -361 0 -9 288 -9 293 1 2 4 7 19 11
35 l6 27 -110 0 c-60 0 -110 3 -110 6 0 3 5 25 11 50 l11 44 99 0 c72 0 99 3
99 13 0 6 3 21 6 33 5 20 2 20 -85 17 -53 -2 -92 1 -96 7 -3 5 -3 25 1 45 l6
35 104 0 c83 0 104 3 104 14 0 8 3 21 6 30 5 14 -10 16 -135 16 -105 0 -143
-3 -146 -12z"/>
<path d="M2570 1470 c0 -29 1 -30 50 -30 35 0 50 -4 50 -13 0 -8 -13 -76 -29
-152 -17 -77 -28 -143 -25 -147 3 -4 19 -8 35 -8 36 0 37 2 74 182 l28 137 55
3 c51 3 56 5 63 31 l7 27 -154 0 -154 0 0 -30z"/>
</g>
</svg>
